<?xml version="1.0" encoding="UTF-8"?>
<!DOCTYPE svg  PUBLIC '-//W3C//DTD SVG 1.1//EN'  'http://www.w3.org/Graphics/SVG/1.1/DTD/svg11.dtd'>
<svg width="85px" height="85px" enable-background="new 0 0 80 80" version="1.1" viewBox="0 0 80 80" xml:space="preserve" xmlns="http://www.w3.org/2000/svg">
		<path d="M40,0c22.091,0,40,17.909,40,40S62.091,80,40,80S0,62.091,0,40S17.909,0,40,0z" fill="#fff"/>
		<path d="m50.378 32.576c0 1.005-0.815 1.821-1.821 1.821-1.005 0-1.82-0.816-1.82-1.821s0.815-1.821 1.82-1.821c1.006 0 1.821 0.816 1.821 1.821zm4.249-5.463c0-0.341-0.304-0.607-0.646-0.607-6.601 0-10.223 1.518-14.964 6.241-1.081 1.1-2.2 2.352-3.338 3.699l-7.188 0.379c-0.19 0.019-0.379 0.133-0.493 0.304l-4.249 7.284c-0.133 0.228-0.095 0.53 0.095 0.739l1.214 1.215c0.114 0.113 0.285 0.17 0.437 0.17 0.057 0 0.114 0 0.17-0.02l5.235-1.611 5.33 5.33-1.612 5.236c-0.057 0.209 0 0.437 0.152 0.606l1.214 1.214c0.133 0.114 0.284 0.171 0.436 0.171 0.114 0 0.208-0.021 0.304-0.075l7.283-4.25c0.171-0.113 0.284-0.304 0.305-0.492l0.379-7.19c1.347-1.138 2.599-2.257 3.699-3.339 4.492-4.514 6.237-8.706 6.237-15.004z" fill="#8cc9f0"/>
</svg>
